<svg id="Layer_1" data-name="Layer 1" xmlns="http://www.w3.org/2000/svg" viewBox="0 0 512 512"><defs><style>.cls-1{fill:#ede3e2;}.cls-2{fill:#f7bc52;}.cls-3{opacity:0.5;}.cls-4{fill:#fff;}.cls-5{fill:#842e20;}</style></defs><title>coffee-machine-filled</title><path class="cls-1" d="M268.8,12.8H467.2a32,32,0,0,1,32,32v76.8a32,32,0,0,1-32,32H44.8a32,32,0,0,1-32-32V44.8a32,32,0,0,1,32-32H64"/><rect class="cls-2" x="198.4" y="57.6" width="115.2" height="51.2"/><polyline class="cls-1" points="448 307.2 448 422.4 64 422.4 64 153.6 448 153.6 448 192"/><path class="cls-1" d="M281.6,499.2H89.6a76.78,76.78,0,0,1-76.8-76.8H499.2a76.7,76.7,0,0,1-76.8,76.8H396.8"/><rect class="cls-1" x="198.4" y="153.6" width="115.2" height="51.2"/><path class="cls-2" d="M185.6,307.2v48.5c0,36.83,30.09,66.7,67.2,66.7S320,392.54,320,355.7V307.2Z"/><g class="cls-3"><polygon class="cls-4" points="281.6 57.6 230.4 108.8 198.4 108.8 198.4 57.6 281.6 57.6"/></g><g class="cls-3"><path class="cls-4" d="M236.8,362V307.2H185.6v48.5c0,36.84,30.09,66.7,67.2,66.7a67.17,67.17,0,0,0,33.95-9.21A51.19,51.19,0,0,1,236.8,362Z"/></g><circle class="cls-5" cx="64" cy="83.2" r="12.8"/><circle class="cls-5" cx="102.4" cy="83.2" r="12.8"/><circle class="cls-5" cx="140.8" cy="83.2" r="12.8"/><circle class="cls-5" cx="371.2" cy="83.2" r="12.8"/><circle class="cls-5" cx="409.6" cy="83.2" r="12.8"/><circle class="cls-5" cx="448" cy="83.2" r="12.8"/><path class="cls-5" d="M460.8,166.4h6.4A44.85,44.85,0,0,0,512,121.6V44.8A44.85,44.85,0,0,0,467.2,0H268.8a12.8,12.8,0,1,0,0,25.6H467.2a19.22,19.22,0,0,1,19.2,19.2v76.8a19.22,19.22,0,0,1-19.2,19.2H44.8a19.22,19.22,0,0,1-19.2-19.2V44.8A19.22,19.22,0,0,1,44.8,25.6H64A12.8,12.8,0,0,0,64,0H44.8A44.85,44.85,0,0,0,0,44.8v76.8a44.85,44.85,0,0,0,44.8,44.8h6.4V409.6H12.8A12.8,12.8,0,0,0,0,422.4,89.7,89.7,0,0,0,89.6,512h192a12.8,12.8,0,0,0,0-25.6H89.6a64.12,64.12,0,0,1-62.72-51.2H485.14a63.91,63.91,0,0,1-62.74,51.2H396.8a12.8,12.8,0,0,0,0,25.6h25.6A89.5,89.5,0,0,0,512,422.4a12.8,12.8,0,0,0-12.8-12.8H460.8V307.2a12.8,12.8,0,1,0-25.6,0V409.6H311.54a79.54,79.54,0,0,0,16.14-26,38.4,38.4,0,1,0,5.12-76.45V294.4h-160v61.31a78.91,78.91,0,0,0,21.26,53.89H76.8V166.4H185.6v51.2h25.6v25.6h25.6V217.6h38.4v25.6h25.6V217.6h25.6V166.4H435.2V192a12.8,12.8,0,1,0,25.6,0ZM345.6,345.6a12.81,12.81,0,0,1-12.8,12.8h-.07c0-.9.07-1.79.07-2.69V332.8A12.81,12.81,0,0,1,345.6,345.6ZM198.4,355.71V320H307.2v35.71c0,29.72-24.4,53.89-54.4,53.89S198.4,385.43,198.4,355.71ZM300.8,192H211.2V166.4h89.6Z"/><path class="cls-5" d="M185.6,121.6H326.4V44.8H185.6Zm25.6-51.2h89.6V96H211.2Z"/><path class="cls-5" d="M345.6,486.4H332.8a12.8,12.8,0,0,0,0,25.6h12.8a12.8,12.8,0,0,0,0-25.6Z"/><path class="cls-5" d="M115.2,25.6H128A12.8,12.8,0,1,0,128,0H115.2a12.8,12.8,0,1,0,0,25.6Z"/><path class="cls-5" d="M179.2,25.6h38.4a12.8,12.8,0,1,0,0-25.6H179.2a12.8,12.8,0,1,0,0,25.6Z"/><path class="cls-5" d="M448,230.4a12.8,12.8,0,0,0-12.8,12.8V256a12.8,12.8,0,1,0,25.6,0V243.2A12.8,12.8,0,0,0,448,230.4Z"/></svg>